<!-- Created with Inkscape (http://www.inkscape.org/) -->
<svg xmlns:rdf="http://www.w3.org/1999/02/22-rdf-syntax-ns#" xmlns="http://www.w3.org/2000/svg" height="32" width="32" version="1.0" xmlns:cc="http://creativecommons.org/ns#" xmlns:xlink="http://www.w3.org/1999/xlink" xmlns:dc="http://purl.org/dc/elements/1.1/">
 <metadata>
  <rdf:RDF>
   <cc:Work rdf:about="">
    <dc:format>image/svg+xml</dc:format>
    <dc:type rdf:resource="http://purl.org/dc/dcmitype/StillImage"/>
    <dc:title/>
   </cc:Work>
  </rdf:RDF>
 </metadata>
 <defs></defs>
 <path opacity="0.9" d="M5,1c-2.216,0-4,1.784-4,4v20c0,2.216,1.784,4,4,4h22c2.216,0,4-1.784,4-4v-20c0-2.216-1.784-4-4-4h-22zm5,6,16,8-16,8,0-16z" fill="#000"/>
 <path fill="#FFF" d="M5,2c-2.216,0-4,1.784-4,4v20c0,2.216,1.784,4,4,4h22c2.216,0,4-1.784,4-4v-20c0-2.216-1.784-4-4-4h-22zm5,6,16,8-16,8,0-16z"/>
 <path opacity="0.1" d="M5,3c-2.216,0-4,1.784-4,4v20c0,2.216,1.784,4,4,4h22c2.216,0,4-1.784,4-4v-20c0-2.216-1.784-4-4-4h-22zm5,6,16,8-16,8,0-16z" fill="#FFF"/>
</svg>
